<svg xmlns="http://www.w3.org/2000/svg" width="917" height="516" viewBox="0 0 917 516">
  <g id="Group_8" data-name="Group 8" transform="translate(-206 -423)">
    <rect id="Rectangle_27" data-name="Rectangle 27" width="917" height="516" transform="translate(206 423)" fill="#ff4500" opacity="0.198"/>
    <path id="Icon_awesome-image" data-name="Icon awesome-image" d="M70.688,63H7.313A7.312,7.312,0,0,1,0,55.688V11.813A7.312,7.312,0,0,1,7.313,4.5H70.688A7.312,7.312,0,0,1,78,11.813V55.688A7.312,7.312,0,0,1,70.688,63ZM17.063,13.031a8.531,8.531,0,1,0,8.531,8.531A8.531,8.531,0,0,0,17.063,13.031ZM9.75,53.25h58.5V36.188L54.918,22.855a1.828,1.828,0,0,0-2.585,0L31.688,43.5,23.23,35.043a1.828,1.828,0,0,0-2.585,0L9.75,45.938Z" transform="translate(626 647.5)" fill="#ff4500"/>
  </g>
</svg>
